<svg width="21" height="21" viewBox="0 0 21 21" fill="none" xmlns="http://www.w3.org/2000/svg">
<path d="M20.3824 19.5573C20.4811 19.6561 20.5366 19.79 20.5366 19.9297C20.5366 20.0694 20.4811 20.2033 20.3824 20.3021C20.2836 20.4008 20.1497 20.4563 20.01 20.4563C19.8704 20.4563 19.7364 20.4008 19.6377 20.3021L10.5366 11.201L1.43557 20.3021C1.33682 20.4008 1.20288 20.4563 1.06321 20.4563C0.923553 20.4563 0.789612 20.4008 0.690857 20.3021C0.592101 20.2033 0.536621 20.0694 0.536621 19.9297C0.536621 19.79 0.592101 19.6561 0.690856 19.5573L9.79191 10.4563L0.690856 1.35525C0.592101 1.25649 0.536621 1.12255 0.536621 0.982892C0.536621 0.843231 0.592101 0.709289 0.690856 0.610534C0.789612 0.511779 0.923553 0.456299 1.06321 0.456299C1.20288 0.456299 1.33682 0.511779 1.43557 0.610534L10.5366 9.71158L19.6377 0.610534C19.6866 0.561635 19.7446 0.522847 19.8085 0.496383C19.8724 0.469919 19.9409 0.456299 20.01 0.456299C20.0792 0.456299 20.1477 0.469919 20.2115 0.496383C20.2754 0.522847 20.3335 0.561635 20.3824 0.610534C20.4313 0.659433 20.4701 0.717484 20.4965 0.781373C20.523 0.845263 20.5366 0.913739 20.5366 0.982892C20.5366 1.05205 20.523 1.12052 20.4965 1.18441C20.4701 1.2483 20.4313 1.30635 20.3824 1.35525L11.2813 10.4563L20.3824 19.5573Z" fill="#DEDEDE"/>
</svg>
