<svg width="34" height="34" viewBox="0 0 34 34" fill="none" xmlns="http://www.w3.org/2000/svg">
<path d="M26.8441 5.65141H25.4312V2.82568H22.6055V5.65141H11.3026V2.82568H8.47687V5.65141H7.06401C5.49573 5.65141 4.25241 6.92298 4.25241 8.47713L4.23828 28.2572C4.23828 29.0066 4.53599 29.7254 5.06592 30.2553C5.59584 30.7852 6.31458 31.0829 7.06401 31.0829H26.8441C28.3982 31.0829 29.6698 29.8113 29.6698 28.2572V8.47713C29.6698 6.92298 28.3982 5.65141 26.8441 5.65141ZM26.8441 28.2572H7.06401V14.1286H26.8441V28.2572ZM12.7155 19.78H9.88973V16.9543H12.7155V19.78ZM18.3669 19.78H15.5412V16.9543H18.3669V19.78ZM24.0183 19.78H21.1926V16.9543H24.0183V19.78ZM12.7155 25.4315H9.88973V22.6058H12.7155V25.4315ZM18.3669 25.4315H15.5412V22.6058H18.3669V25.4315ZM24.0183 25.4315H21.1926V22.6058H24.0183V25.4315Z" fill="white"/>
</svg>
