<svg width="6rem" height="6rem" viewBox="0 0 27 26" fill="none" xmlns="http://www.w3.org/2000/svg">
<g clip-path="url(#clip0_135_2132)">
<path d="M9.40568 0.855259C6.70797 1.75646 4.38146 3.46697 2.76788 5.73554C1.15431 8.00412 0.338728 10.7112 0.440929 13.4591C0.543131 16.207 1.55773 18.851 3.3357 21.0026C5.11367 23.1542 7.56129 24.7 10.319 25.4131C12.5548 25.9686 14.8973 25.993 17.145 25.4842C19.1812 25.0437 21.0637 24.1016 22.6083 22.7501C24.2158 21.3005 25.3826 19.4564 25.9833 17.416C26.6359 15.1972 26.7521 12.8639 26.3229 10.5951H13.7679V15.6103H21.0389C20.8936 16.4101 20.5822 17.1736 20.1233 17.8549C19.6645 18.5361 19.0676 19.1213 18.3684 19.5753C17.4807 20.141 16.4797 20.5216 15.4301 20.6924C14.3774 20.881 13.2976 20.881 12.2449 20.6924C11.1779 20.4803 10.1685 20.0562 9.28123 19.4473C7.85561 18.4755 6.78516 17.0949 6.22264 15.5026C5.65076 13.8804 5.65076 12.1218 6.22264 10.4996C6.62305 9.36257 7.28499 8.32728 8.15904 7.47104C9.15929 6.47318 10.4256 5.75991 11.8191 5.40948C13.2126 5.05904 14.6795 5.08499 16.0587 5.48448C17.1361 5.80282 18.1214 6.35929 18.9358 7.10948C19.7557 6.32406 20.5741 5.53661 21.3912 4.74713C21.813 4.3226 22.2729 3.91838 22.6884 3.4837C21.445 2.36959 19.9856 1.50263 18.3937 0.932447C15.4948 -0.0811677 12.3229 -0.108408 9.40568 0.855259Z" fill="white"/>
<path d="M9.40579 0.85527C12.3228 -0.109052 15.4947 -0.0825291 18.3938 0.930426C19.986 1.50448 21.4447 2.37562 22.6864 3.49386C22.2645 3.92855 21.8195 4.3348 21.3892 4.7573C20.5707 5.54407 19.753 6.32813 18.9359 7.10949C18.1215 6.3593 17.1362 5.80283 16.0588 5.48449C14.68 5.0836 13.2133 5.05615 11.8194 5.40515C10.4255 5.75415 9.15839 6.46611 8.15704 7.46293C7.28299 8.31917 6.62105 9.35446 6.22063 10.4915L1.8479 7.23136C3.41307 4.2425 6.12307 1.95626 9.40579 0.85527Z" fill="#E33629"/>
<path d="M0.687826 10.4609C0.922683 9.33917 1.31289 8.25291 1.84798 7.2312L6.22072 10.4995C5.64884 12.1217 5.64884 13.8803 6.22072 15.5025C4.76384 16.5858 3.30626 17.6745 1.84798 18.7687C0.508847 16.2018 0.100434 13.2772 0.687826 10.4609Z" fill="#F8BD00"/>
<path d="M13.768 10.593H26.323C26.7523 12.8618 26.6361 15.1951 25.9834 17.414C25.3827 19.4543 24.2159 21.2984 22.6084 22.748C21.1972 21.6877 19.7797 20.6355 18.3686 19.5752C19.0682 19.1208 19.6654 18.535 20.1242 17.853C20.5831 17.171 20.8943 16.4067 21.039 15.6061H13.768C13.7659 13.9365 13.768 12.2647 13.768 10.593Z" fill="#587DBD"/>
<path d="M1.8457 18.7687C3.30398 17.6854 4.76156 16.5966 6.21844 15.5024C6.78208 17.0953 7.85406 18.476 9.28125 19.4471C10.1713 20.0532 11.1828 20.4738 12.2513 20.6821C13.3039 20.8707 14.3837 20.8707 15.4364 20.6821C16.4861 20.5113 17.487 20.1307 18.3748 19.5649C19.7859 20.6253 21.2034 21.6774 22.6146 22.7378C21.0703 24.09 19.1878 25.0328 17.1513 25.4738C14.9036 25.9827 12.5612 25.9583 10.3254 25.4028C8.55711 24.9481 6.90541 24.1466 5.47383 23.0485C3.95872 21.89 2.72117 20.4301 1.8457 18.7687Z" fill="#319F43"/>
</g>
<defs>
<clipPath id="clip0_135_2132">
<rect width="27" height="26" fill="white"/>
</clipPath>
</defs>
</svg>
