<svg width="14" height="14" viewBox="0 0 14 14" fill="none" xmlns="http://www.w3.org/2000/svg">
<path d="M3.00586 10.9221L6.32196 10.9108L13.5598 3.74208C13.8439 3.45803 14.0002 3.08081 14.0002 2.67954C14.0002 2.27827 13.8439 1.90105 13.5598 1.617L12.368 0.425221C11.8 -0.142867 10.8088 -0.139862 10.2452 0.422967L3.00586 7.5932V10.9221ZM11.3055 1.48776L12.4995 2.67729L11.2995 3.86606L10.1077 2.67503L11.3055 1.48776ZM4.50874 8.2199L9.03992 3.73156L10.2317 4.92334L5.70127 9.41019L4.50874 9.41394V8.2199Z" fill="#414141"/>
<path d="M1.50288 13.918H12.023C12.8519 13.918 13.5259 13.244 13.5259 12.4151V5.90165L12.023 7.40452V12.4151H3.87593C3.85639 12.4151 3.8361 12.4226 3.81656 12.4226C3.79177 12.4226 3.76697 12.4159 3.74142 12.4151H1.50288V1.89497H6.64799L8.15087 0.39209H1.50288C0.674041 0.39209 0 1.06613 0 1.89497V12.4151C0 13.244 0.674041 13.918 1.50288 13.918Z" fill="#414141"/>
</svg>
