<svg width="20" height="20" viewBox="0 0 20 20" fill="none" xmlns="http://www.w3.org/2000/svg">
<path d="M1.66397 0.51945C0.866108 0.118837 -0.0190611 0.880947 0.25428 1.73411L2.17371 7.72511C2.21145 7.84288 2.28072 7.94796 2.37394 8.02885C2.46717 8.10974 2.58075 8.16331 2.70226 8.18372L10.6735 9.51843C11.0476 9.58115 11.0476 10.1207 10.6735 10.1834L2.70293 11.5174C2.5813 11.5377 2.46757 11.5913 2.37422 11.6722C2.28087 11.7531 2.2115 11.8582 2.17371 11.9761L0.25428 17.9691C-0.0190611 18.8222 0.865436 19.5844 1.66397 19.1837L18.4499 10.7567C19.1927 10.3837 19.1927 9.32014 18.4499 8.94651L1.66397 0.51945Z" fill="#C3C3C3"/>
</svg>
